# xmcd
#
# Track frame offsets:
#	150
#	16273
#	31511
#	57219
#	71688
#	94393
#	108844
#	124576
#	140668
#	154102
#	173255
#	187183
#	210432
#	233687
#	252073
#	271909
#	284799
#	299793
#	316408
#	337068
#
# Disc length: 4741 seconds
#
# Revision: 1
# Processed by: cddbd v1.5.1PL0 Copyright (c) Steve Scherf et al.
# Submitted via: audiograbber 1.81.02
#
DISCID=26128314
DTITLE=Trio Chapahalls - As 20 melhores do trio chapahalls
DYEAR=2004
DGENRE=Forró
TTITLE0=Colo de Menina
TTITLE1=Sapatilha 37
TTITLE2=Esperando na janela
TTITLE3=Eu quero é me libertar
TTITLE4=Xote dos milagres
TTITLE5=Nóis é jeca, mais é joia
TTITLE6=Na base do casete
TTITLE7=Xote do amor
TTITLE8=Treme treme
TTITLE9=Quando o coração se apaixona
TTITLE10=Perereca da vizinha
TTITLE11=Tapioca
TTITLE12=Folha de Ortiga
TTITLE13=Xote da alegria
TTITLE14=Pra rebolar
TTITLE15=Pau na raspadinha
TTITLE16=Coxinha
TTITLE17=Melo do viado
TTITLE18=Forró de tókio
TTITLE19=Lembrança
EXTD=
EXTT0=
EXTT1=
EXTT2=
EXTT3=
EXTT4=
EXTT5=
EXTT6=
EXTT7=
EXTT8=
EXTT9=
EXTT10=
EXTT11=
EXTT12=
EXTT13=
EXTT14=
EXTT15=
EXTT16=
EXTT17=
EXTT18=
EXTT19=
PLAYORDER=
